<svg xmlns="http://www.w3.org/2000/svg" xmlns:xlink="http://www.w3.org/1999/xlink" width="55" zoomAndPan="magnify" viewBox="0 0 41.25 41.250001" height="55" preserveAspectRatio="xMidYMid meet" version="1.0"><defs><clipPath id="a3fce95f38"><path d="M 0 0 L 40.511719 0 L 40.511719 40.511719 L 0 40.511719 Z M 0 0 " clip-rule="nonzero"/></clipPath><clipPath id="0dbf2aca70"><path d="M 1 1 L 39 1 L 39 39 L 1 39 Z M 1 1 " clip-rule="nonzero"/></clipPath><clipPath id="e33280bcca"><path d="M 13.925781 1.898438 C 14.277344 1.898438 14.558594 2.183594 14.558594 2.53125 L 14.558594 4.429688 C 14.558594 4.78125 14.277344 5.0625 13.925781 5.0625 C 13.578125 5.0625 13.292969 4.78125 13.292969 4.429688 L 13.292969 2.53125 C 13.292969 2.183594 13.578125 1.898438 13.925781 1.898438 Z M 13.925781 8.230469 C 10.78125 8.230469 8.230469 10.78125 8.230469 13.925781 C 8.230469 17.074219 10.78125 19.625 13.925781 19.625 C 17.074219 19.625 19.625 17.074219 19.625 13.925781 C 19.625 10.78125 17.074219 8.230469 13.925781 8.230469 Z M 6.964844 13.925781 C 6.964844 10.082031 10.082031 6.964844 13.925781 6.964844 C 17.773438 6.964844 20.890625 10.082031 20.890625 13.925781 C 20.890625 17.773438 17.773438 20.890625 13.925781 20.890625 C 10.082031 20.890625 6.964844 17.773438 6.964844 13.925781 Z M 25.324219 14.558594 C 25.671875 14.558594 25.957031 14.277344 25.957031 13.925781 C 25.957031 13.578125 25.671875 13.292969 25.324219 13.292969 L 23.425781 13.292969 C 23.074219 13.292969 22.789062 13.578125 22.789062 13.925781 C 22.789062 14.277344 23.074219 14.558594 23.425781 14.558594 Z M 22.433594 22.429688 C 22.1875 22.679688 21.785156 22.679688 21.539062 22.429688 L 20.195312 21.089844 C 19.949219 20.839844 19.949219 20.441406 20.195312 20.191406 C 20.441406 19.945312 20.84375 19.945312 21.089844 20.191406 L 22.433594 21.535156 C 22.679688 21.78125 22.679688 22.183594 22.433594 22.429688 Z M 6.316406 22.429688 C 6.070312 22.679688 5.667969 22.679688 5.421875 22.429688 C 5.175781 22.183594 5.175781 21.78125 5.421875 21.535156 L 6.765625 20.191406 C 7.011719 19.945312 7.414062 19.945312 7.660156 20.191406 C 7.90625 20.441406 7.90625 20.839844 7.660156 21.089844 Z M 13.925781 22.789062 C 14.277344 22.789062 14.558594 23.070312 14.558594 23.421875 L 14.558594 25.320312 C 14.558594 25.671875 14.277344 25.953125 13.925781 25.953125 C 13.578125 25.953125 13.292969 25.671875 13.292969 25.320312 L 13.292969 23.421875 C 13.292969 23.070312 13.578125 22.789062 13.925781 22.789062 Z M 4.429688 14.558594 C 4.78125 14.558594 5.0625 14.277344 5.0625 13.925781 C 5.0625 13.578125 4.78125 13.292969 4.429688 13.292969 L 2.53125 13.292969 C 2.183594 13.292969 1.898438 13.578125 1.898438 13.925781 C 1.898438 14.277344 2.183594 14.558594 2.53125 14.558594 Z M 7.660156 7.660156 C 7.414062 7.90625 7.011719 7.90625 6.765625 7.660156 L 5.421875 6.316406 C 5.175781 6.070312 5.175781 5.667969 5.421875 5.421875 C 5.667969 5.175781 6.070312 5.175781 6.316406 5.421875 L 7.660156 6.765625 C 7.90625 7.011719 7.90625 7.414062 7.660156 7.660156 Z M 21.089844 7.660156 C 20.84375 7.90625 20.441406 7.90625 20.195312 7.660156 C 19.949219 7.414062 19.949219 7.011719 20.195312 6.765625 L 21.539062 5.421875 C 21.785156 5.175781 22.1875 5.175781 22.433594 5.421875 C 22.679688 5.667969 22.679688 6.070312 22.433594 6.316406 Z M 18.433594 27.851562 C 18.199219 27.851562 17.980469 27.984375 17.875 28.191406 L 16.058594 31.652344 L 21.90625 31.652344 L 23.691406 27.851562 Z M 21.308594 32.917969 L 15.398438 32.917969 L 13.558594 36.421875 C 13.339844 36.84375 13.644531 37.347656 14.121094 37.347656 L 19.222656 37.347656 Z M 22.707031 32.917969 L 28.273438 32.917969 L 26.1875 37.347656 L 20.621094 37.347656 Z M 28.867188 31.652344 L 23.304688 31.652344 L 25.089844 27.851562 L 30.65625 27.851562 Z M 29.671875 32.917969 L 27.585938 37.347656 L 32.398438 37.347656 C 32.636719 37.347656 32.851562 37.21875 32.960938 37.007812 L 35.105469 32.917969 Z M 35.769531 31.652344 L 30.269531 31.652344 L 32.054688 27.851562 L 36.710938 27.851562 C 37.1875 27.851562 37.496094 28.359375 37.273438 28.78125 Z M 16.75 27.605469 C 17.078125 26.980469 17.726562 26.585938 18.433594 26.585938 L 36.710938 26.585938 C 38.140625 26.585938 39.058594 28.101562 38.394531 29.367188 L 34.082031 37.597656 C 33.753906 38.222656 33.105469 38.613281 32.398438 38.613281 L 14.121094 38.613281 C 12.695312 38.613281 11.777344 37.097656 12.4375 35.832031 Z M 16.75 27.605469 " clip-rule="evenodd"/></clipPath><linearGradient x1="23.999999" gradientTransform="matrix(0.0791277, 0, 0, 0.0791277, 0.000000000000002617, 0.00000246429)" y1="23.999999" x2="490.800492" gradientUnits="userSpaceOnUse" y2="490.800492" id="9c266fa714"><stop stop-opacity="1" stop-color="rgb(50.59967%, 79.998779%, 31.399536%)" offset="0"/><stop stop-opacity="1" stop-color="rgb(50.506592%, 79.852295%, 31.341553%)" offset="0.03125"/><stop stop-opacity="1" stop-color="rgb(50.311279%, 79.542542%, 31.217957%)" offset="0.046875"/><stop stop-opacity="1" stop-color="rgb(50.105286%, 79.216003%, 31.089783%)" offset="0.0625"/><stop stop-opacity="1" stop-color="rgb(49.900818%, 78.890991%, 30.961609%)" offset="0.078125"/><stop stop-opacity="1" stop-color="rgb(49.69635%, 78.564453%, 30.833435%)" offset="0.09375"/><stop stop-opacity="1" stop-color="rgb(49.490356%, 78.239441%, 30.703735%)" offset="0.109375"/><stop stop-opacity="1" stop-color="rgb(49.285889%, 77.914429%, 30.575562%)" offset="0.125"/><stop stop-opacity="1" stop-color="rgb(49.079895%, 77.587891%, 30.447388%)" offset="0.140625"/><stop stop-opacity="1" stop-color="rgb(48.875427%, 77.262878%, 30.317688%)" offset="0.15625"/><stop stop-opacity="1" stop-color="rgb(48.669434%, 76.93634%, 30.189514%)" offset="0.171875"/><stop stop-opacity="1" stop-color="rgb(48.464966%, 76.611328%, 30.06134%)" offset="0.1875"/><stop stop-opacity="1" stop-color="rgb(48.258972%, 76.286316%, 29.931641%)" offset="0.203125"/><stop stop-opacity="1" stop-color="rgb(48.054504%, 75.959778%, 29.803467%)" offset="0.21875"/><stop stop-opacity="1" stop-color="rgb(47.850037%, 75.634766%, 29.675293%)" offset="0.234375"/><stop stop-opacity="1" stop-color="rgb(47.644043%, 75.308228%, 29.547119%)" offset="0.25"/><stop stop-opacity="1" stop-color="rgb(47.439575%, 74.983215%, 29.417419%)" offset="0.265625"/><stop stop-opacity="1" stop-color="rgb(47.233582%, 74.658203%, 29.289246%)" offset="0.28125"/><stop stop-opacity="1" stop-color="rgb(47.029114%, 74.331665%, 29.161072%)" offset="0.296875"/><stop stop-opacity="1" stop-color="rgb(46.82312%, 74.006653%, 29.031372%)" offset="0.3125"/><stop stop-opacity="1" stop-color="rgb(46.618652%, 73.680115%, 28.903198%)" offset="0.328125"/><stop stop-opacity="1" stop-color="rgb(46.414185%, 73.355103%, 28.775024%)" offset="0.34375"/><stop stop-opacity="1" stop-color="rgb(46.208191%, 73.03009%, 28.646851%)" offset="0.359375"/><stop stop-opacity="1" stop-color="rgb(46.003723%, 72.703552%, 28.517151%)" offset="0.375"/><stop stop-opacity="1" stop-color="rgb(45.797729%, 72.37854%, 28.388977%)" offset="0.390625"/><stop stop-opacity="1" stop-color="rgb(45.593262%, 72.053528%, 28.260803%)" offset="0.40625"/><stop stop-opacity="1" stop-color="rgb(45.387268%, 71.72699%, 28.131104%)" offset="0.421875"/><stop stop-opacity="1" stop-color="rgb(45.1828%, 71.401978%, 28.00293%)" offset="0.4375"/><stop stop-opacity="1" stop-color="rgb(44.976807%, 71.075439%, 27.874756%)" offset="0.453125"/><stop stop-opacity="1" stop-color="rgb(44.772339%, 70.750427%, 27.746582%)" offset="0.46875"/><stop stop-opacity="1" stop-color="rgb(44.567871%, 70.425415%, 27.616882%)" offset="0.484375"/><stop stop-opacity="1" stop-color="rgb(44.361877%, 70.098877%, 27.488708%)" offset="0.497001"/><stop stop-opacity="1" stop-color="rgb(44.259644%, 69.937134%, 27.424622%)" offset="0.5"/><stop stop-opacity="1" stop-color="rgb(44.15741%, 69.773865%, 27.360535%)" offset="0.502999"/><stop stop-opacity="1" stop-color="rgb(44.055176%, 69.610596%, 27.296448%)" offset="0.515625"/><stop stop-opacity="1" stop-color="rgb(43.951416%, 69.447327%, 27.230835%)" offset="0.53125"/><stop stop-opacity="1" stop-color="rgb(43.746948%, 69.122314%, 27.102661%)" offset="0.546875"/><stop stop-opacity="1" stop-color="rgb(43.540955%, 68.797302%, 26.974487%)" offset="0.5625"/><stop stop-opacity="1" stop-color="rgb(43.336487%, 68.470764%, 26.846313%)" offset="0.578125"/><stop stop-opacity="1" stop-color="rgb(43.132019%, 68.145752%, 26.716614%)" offset="0.59375"/><stop stop-opacity="1" stop-color="rgb(42.926025%, 67.819214%, 26.58844%)" offset="0.609375"/><stop stop-opacity="1" stop-color="rgb(42.721558%, 67.494202%, 26.460266%)" offset="0.625"/><stop stop-opacity="1" stop-color="rgb(42.515564%, 67.169189%, 26.330566%)" offset="0.640625"/><stop stop-opacity="1" stop-color="rgb(42.311096%, 66.842651%, 26.202393%)" offset="0.65625"/><stop stop-opacity="1" stop-color="rgb(42.105103%, 66.517639%, 26.074219%)" offset="0.671875"/><stop stop-opacity="1" stop-color="rgb(41.900635%, 66.191101%, 25.944519%)" offset="0.6875"/><stop stop-opacity="1" stop-color="rgb(41.694641%, 65.866089%, 25.816345%)" offset="0.703125"/><stop stop-opacity="1" stop-color="rgb(41.490173%, 65.541077%, 25.688171%)" offset="0.71875"/><stop stop-opacity="1" stop-color="rgb(41.285706%, 65.214539%, 25.559998%)" offset="0.734375"/><stop stop-opacity="1" stop-color="rgb(41.079712%, 64.889526%, 25.430298%)" offset="0.75"/><stop stop-opacity="1" stop-color="rgb(40.875244%, 64.562988%, 25.302124%)" offset="0.765625"/><stop stop-opacity="1" stop-color="rgb(40.66925%, 64.237976%, 25.17395%)" offset="0.78125"/><stop stop-opacity="1" stop-color="rgb(40.464783%, 63.912964%, 25.04425%)" offset="0.796875"/><stop stop-opacity="1" stop-color="rgb(40.258789%, 63.586426%, 24.916077%)" offset="0.8125"/><stop stop-opacity="1" stop-color="rgb(40.054321%, 63.261414%, 24.787903%)" offset="0.828125"/><stop stop-opacity="1" stop-color="rgb(39.849854%, 62.934875%, 24.659729%)" offset="0.84375"/><stop stop-opacity="1" stop-color="rgb(39.64386%, 62.609863%, 24.530029%)" offset="0.859375"/><stop stop-opacity="1" stop-color="rgb(39.439392%, 62.284851%, 24.401855%)" offset="0.875"/><stop stop-opacity="1" stop-color="rgb(39.233398%, 61.958313%, 24.273682%)" offset="0.890625"/><stop stop-opacity="1" stop-color="rgb(39.028931%, 61.633301%, 24.143982%)" offset="0.90625"/><stop stop-opacity="1" stop-color="rgb(38.822937%, 61.308289%, 24.015808%)" offset="0.921875"/><stop stop-opacity="1" stop-color="rgb(38.618469%, 60.98175%, 23.887634%)" offset="0.9375"/><stop stop-opacity="1" stop-color="rgb(38.412476%, 60.656738%, 23.75946%)" offset="0.953125"/><stop stop-opacity="1" stop-color="rgb(38.208008%, 60.3302%, 23.629761%)" offset="0.96875"/><stop stop-opacity="1" stop-color="rgb(38.052368%, 60.083008%, 23.532104%)" offset="1"/></linearGradient></defs><g clip-path="url(#a3fce95f38)"><path fill="#ffffff" d="M 0 0 L 41.25 0 L 41.25 48.617188 L 0 48.617188 Z M 0 0 " fill-opacity="1" fill-rule="nonzero"/><path fill="#ffffff" d="M 0 0 L 40.511719 0 L 40.511719 40.511719 L 0 40.511719 Z M 0 0 " fill-opacity="1" fill-rule="nonzero"/><path fill="#ffffff" d="M 0 0 L 40.511719 0 L 40.511719 40.511719 L 0 40.511719 Z M 0 0 " fill-opacity="1" fill-rule="nonzero"/></g><g clip-path="url(#0dbf2aca70)"><g clip-path="url(#e33280bcca)"><path fill="url(#9c266fa714)" d="M 1.898438 1.898438 L 1.898438 38.613281 L 39.058594 38.613281 L 39.058594 1.898438 Z M 1.898438 1.898438 " fill-rule="nonzero"/></g></g></svg>