<svg xmlns="http://www.w3.org/2000/svg" xmlns:xlink="http://www.w3.org/1999/xlink" width="500" zoomAndPan="magnify" viewBox="0 0 375 374.999991" height="500" preserveAspectRatio="xMidYMid meet" version="1.0"><defs><clipPath id="283cf9a5cf"><path d="M 68 86 L 365.457031 86 L 365.457031 347 L 68 347 Z M 68 86 " clip-rule="nonzero"/></clipPath><clipPath id="0d073d3c47"><path d="M 4.664062 18.214844 L 86 18.214844 L 86 119 L 4.664062 119 Z M 4.664062 18.214844 " clip-rule="nonzero"/></clipPath><clipPath id="baecf1414b"><path d="M 68 86 L 172.800781 86 L 172.800781 142.566406 L 68 142.566406 Z M 68 86 " clip-rule="nonzero"/></clipPath><clipPath id="f768093dc5"><path d="M 96 57 L 172.800781 57 L 172.800781 104 L 96 104 Z M 96 57 " clip-rule="nonzero"/></clipPath><clipPath id="33664be531"><path d="M 47 91 L 172.800781 91 L 172.800781 142.566406 L 47 142.566406 Z M 47 91 " clip-rule="nonzero"/></clipPath><clipPath id="5a2f308c74"><path d="M 4.664062 18.214844 L 86 18.214844 L 86 119 L 4.664062 119 Z M 4.664062 18.214844 " clip-rule="nonzero"/></clipPath><clipPath id="7a48c872cb"><path d="M 147 120 L 185 120 L 185 156 L 147 156 Z M 147 120 " clip-rule="nonzero"/></clipPath><clipPath id="0f1ebc5186"><path d="M 147.875 143.800781 L 175.976562 119.816406 L 186.636719 132.308594 L 158.535156 156.289062 Z M 147.875 143.800781 " clip-rule="nonzero"/></clipPath><clipPath id="f4eaecb417"><path d="M 147.875 143.800781 L 174.835938 120.792969 L 184.835938 132.511719 L 157.875 155.519531 Z M 147.875 143.800781 " clip-rule="nonzero"/></clipPath></defs><path fill="#0f3e7d" d="M 197.128906 219.027344 L 215.796875 219.027344 L 215.796875 200.402344 L 197.128906 200.402344 L 197.128906 219.027344 " fill-opacity="1" fill-rule="nonzero"/><path fill="#0f3e7d" d="M 218.316406 219.027344 L 236.988281 219.027344 L 236.988281 200.402344 L 218.316406 200.402344 L 218.316406 219.027344 " fill-opacity="1" fill-rule="nonzero"/><path fill="#0f3e7d" d="M 197.128906 240.164062 L 215.796875 240.164062 L 215.796875 221.542969 L 197.128906 221.542969 L 197.128906 240.164062 " fill-opacity="1" fill-rule="nonzero"/><path fill="#0f3e7d" d="M 218.316406 240.164062 L 236.988281 240.164062 L 236.988281 221.542969 L 218.316406 221.542969 L 218.316406 240.164062 " fill-opacity="1" fill-rule="nonzero"/><g clip-path="url(#283cf9a5cf)"><path fill="#0f3e7d" d="M 312.601562 190.542969 L 295.3125 190.542969 L 295.3125 292.871094 L 294.644531 293.394531 L 293.007812 294.675781 C 291.921875 295.53125 290.851562 296.402344 289.714844 297.195312 L 286.378906 299.640625 L 282.960938 301.960938 C 282.386719 302.34375 281.835938 302.75 281.25 303.113281 L 279.503906 304.207031 L 277.761719 305.308594 L 276.890625 305.863281 L 276.003906 306.382812 L 272.445312 308.453125 C 271.867188 308.816406 271.246094 309.117188 270.648438 309.449219 L 268.839844 310.425781 L 267.03125 311.398438 L 265.191406 312.3125 L 263.355469 313.226562 C 262.738281 313.527344 262.136719 313.851562 261.507812 314.121094 C 260.257812 314.675781 259.015625 315.25 257.773438 315.820312 C 257.15625 316.117188 256.523438 316.371094 255.890625 316.632812 L 253.996094 317.410156 C 248.941406 319.496094 243.796875 321.347656 238.546875 322.875 L 236.585938 323.472656 C 235.933594 323.671875 235.269531 323.828125 234.609375 324.007812 L 230.644531 325.042969 L 226.644531 325.957031 L 225.648438 326.1875 C 225.3125 326.257812 224.976562 326.316406 224.640625 326.382812 L 222.628906 326.769531 C 219.949219 327.351562 217.230469 327.683594 214.53125 328.144531 C 211.8125 328.472656 209.097656 328.855469 206.363281 329.066406 C 204.996094 329.191406 203.628906 329.339844 202.261719 329.394531 L 198.144531 329.636719 C 195.402344 329.675781 192.644531 329.832031 189.890625 329.75 C 187.132812 329.777344 184.378906 329.597656 181.613281 329.507812 L 177.476562 329.199219 C 176.785156 329.136719 176.089844 329.121094 175.402344 329.035156 L 173.335938 328.808594 L 171.265625 328.585938 L 170.226562 328.476562 L 169.199219 328.328125 L 165.0625 327.746094 C 163.683594 327.535156 162.316406 327.273438 160.9375 327.035156 L 158.871094 326.675781 L 156.820312 326.242188 L 154.757812 325.808594 C 154.074219 325.667969 153.378906 325.539062 152.703125 325.363281 L 148.601562 324.363281 C 148.261719 324.277344 147.914062 324.207031 147.574219 324.113281 L 146.558594 323.824219 L 144.519531 323.253906 L 142.472656 322.6875 C 142.125 322.597656 141.792969 322.488281 141.457031 322.382812 L 140.441406 322.0625 L 138.800781 321.554688 L 138.800781 190.542969 L 121.515625 190.542969 L 217.058594 111.15625 L 281.800781 164.953125 L 294.953125 175.878906 Z M 310.800781 111.597656 L 272.136719 111.597656 L 272.136719 132.082031 L 217.058594 86.320312 L 68.660156 209.621094 L 119.675781 209.621094 L 119.675781 314.386719 C 115.890625 312.738281 112.121094 310.976562 108.335938 309.136719 C 116.550781 317.628906 126.324219 324.675781 136.894531 330.425781 C 142.195312 333.277344 147.699219 335.839844 153.394531 337.925781 L 155.527344 338.730469 C 156.246094 338.988281 156.96875 339.21875 157.6875 339.457031 C 159.136719 339.921875 160.578125 340.417969 162.035156 340.859375 L 166.4375 342.085938 L 167.542969 342.390625 L 168.65625 342.65625 L 170.886719 343.171875 C 173.855469 343.914062 176.875 344.390625 179.890625 344.949219 C 182.921875 345.375 185.957031 345.839844 189.019531 346.085938 C 192.070312 346.414062 195.140625 346.53125 198.214844 346.679688 C 201.289062 346.707031 204.367188 346.789062 207.445312 346.625 C 210.527344 346.574219 213.59375 346.273438 216.667969 346.035156 C 218.199219 345.871094 219.730469 345.679688 221.261719 345.488281 C 222.023438 345.382812 222.796875 345.316406 223.550781 345.179688 L 225.835938 344.808594 C 228.894531 344.355469 231.898438 343.671875 234.925781 343.046875 C 236.425781 342.695312 237.917969 342.289062 239.414062 341.914062 C 240.160156 341.71875 240.914062 341.546875 241.652344 341.324219 L 243.871094 340.667969 L 247.199219 339.660156 L 248.289062 339.28125 L 252.664062 337.765625 C 254.113281 337.230469 255.542969 336.636719 256.980469 336.074219 C 257.695312 335.785156 258.414062 335.515625 259.125 335.210938 L 261.238281 334.273438 L 263.351562 333.320312 C 264.054688 333.007812 264.757812 332.695312 265.445312 332.339844 L 269.582031 330.273438 C 270.273438 329.9375 270.941406 329.542969 271.617188 329.175781 L 273.636719 328.054688 L 275.65625 326.929688 L 277.625 325.722656 C 282.917969 322.574219 287.933594 318.976562 292.734375 315.160156 C 293.929688 314.191406 295.113281 313.21875 296.289062 312.238281 L 299.714844 309.175781 C 300.867188 308.167969 301.945312 307.085938 303.042969 306.015625 L 304.675781 304.410156 L 305.484375 303.601562 L 306.269531 302.765625 L 309.378906 299.414062 C 310.40625 298.292969 311.394531 297.132812 312.378906 295.972656 C 314.324219 293.628906 316.203125 291.242188 317.984375 288.789062 C 321.558594 283.890625 324.777344 278.773438 327.632812 273.484375 C 330.480469 268.1875 332.960938 262.726562 335.011719 257.136719 C 337.066406 251.550781 338.707031 245.839844 339.792969 240.042969 C 336.761719 245.105469 333.675781 250.027344 330.402344 254.765625 C 328.738281 257.121094 327.085938 259.457031 325.347656 261.722656 L 324.039062 263.421875 L 322.730469 265.101562 C 321.839844 266.210938 320.949219 267.316406 320.03125 268.402344 C 318.207031 270.589844 316.34375 272.730469 314.441406 274.816406 L 314.441406 209.621094 L 365.457031 209.621094 L 320.464844 172.238281 L 310.800781 164.207031 L 310.800781 111.597656 " fill-opacity="1" fill-rule="nonzero"/></g><path fill="#fa1414" d="M 117.960938 77.855469 C 123.964844 74.855469 130.28125 72.472656 136.789062 71.011719 C 143.28125 69.546875 149.980469 69.042969 156.464844 69.835938 C 149.933594 70 143.570312 71.457031 137.613281 73.746094 C 131.648438 76.039062 126.0625 79.15625 120.875 82.769531 C 115.679688 86.394531 110.847656 90.519531 106.195312 94.882812 C 104.5625 96.417969 102.949219 97.984375 101.347656 99.574219 C 112.894531 105.738281 128.121094 104.410156 138.335938 96.195312 C 142.320312 92.992188 145.507812 88.933594 148.917969 85.128906 C 152.332031 81.324219 156.109375 77.664062 160.796875 75.613281 C 165.484375 73.5625 171.265625 73.378906 175.476562 76.285156 C 169.019531 70.425781 163.09375 64.695312 154.707031 61.238281 C 146.214844 57.742188 136.585938 56.878906 127.675781 59.242188 C 112.90625 63.164062 100.839844 75.769531 97.429688 90.609375 C 98.542969 89.804688 99.660156 89.011719 100.789062 88.226562 C 106.253906 84.421875 111.953125 80.851562 117.960938 77.855469 " fill-opacity="1" fill-rule="nonzero"/><path fill="#fa1414" d="M 81.707031 112.328125 L 81.082031 113.039062 L 80.496094 113.777344 L 79.324219 115.257812 L 76.992188 118.234375 L 76.40625 118.984375 C 76.214844 119.230469 76.039062 119.496094 75.855469 119.75 L 74.765625 121.296875 L 72.582031 124.398438 C 71.828125 125.417969 71.195312 126.511719 70.515625 127.578125 L 68.5 130.800781 C 67.800781 131.863281 67.226562 132.988281 66.597656 134.09375 L 64.742188 137.417969 C 55.167969 155.34375 49.355469 175.410156 47.734375 195.90625 C 47.597656 198.472656 47.453125 201.039062 47.332031 203.613281 C 47.324219 206.183594 47.289062 208.757812 47.308594 211.332031 L 47.484375 215.195312 L 47.578125 217.125 C 47.621094 217.769531 47.621094 218.414062 47.695312 219.054688 L 48.066406 222.90625 L 48.253906 224.832031 C 48.316406 225.476562 48.363281 226.121094 48.472656 226.753906 C 49.730469 237.003906 52.117188 247.125 55.441406 256.9375 C 58.769531 266.75 63.144531 276.21875 68.410156 285.160156 L 70.453125 288.476562 L 71.476562 290.128906 L 71.992188 290.957031 C 72.167969 291.234375 72.355469 291.496094 72.539062 291.765625 L 74.75 294.96875 L 75.855469 296.574219 C 76.226562 297.105469 76.582031 297.648438 76.988281 298.152344 C 78.578125 300.207031 80.144531 302.28125 81.757812 304.308594 L 86.820312 310.222656 L 92.191406 315.863281 C 93.105469 316.785156 94.066406 317.660156 95 318.558594 L 97.832031 321.238281 C 98.292969 321.691406 98.796875 322.101562 99.289062 322.527344 L 100.773438 323.789062 L 103.738281 326.320312 C 103.984375 326.527344 104.230469 326.742188 104.480469 326.945312 L 105.253906 327.539062 L 106.796875 328.730469 L 109.890625 331.101562 C 118.257812 337.257812 127.242188 342.585938 136.675781 346.910156 C 146.105469 351.238281 155.949219 354.652344 166.035156 356.972656 C 166.660156 357.144531 167.296875 357.257812 167.929688 357.386719 L 173.628906 358.546875 C 174.261719 358.6875 174.90625 358.753906 175.542969 358.863281 L 177.457031 359.160156 L 181.285156 359.734375 C 183.851562 360.023438 186.425781 360.253906 188.984375 360.515625 C 191.5625 360.667969 194.136719 360.789062 196.707031 360.921875 C 217.308594 361.457031 237.917969 357.78125 256.785156 350.160156 C 266.214844 346.347656 275.21875 341.59375 283.570312 335.957031 C 291.925781 330.332031 299.648438 323.855469 306.507812 316.640625 C 298.585938 322.675781 290.25 328.035156 281.535156 332.554688 C 272.820312 337.066406 263.753906 340.777344 254.453125 343.578125 C 235.859375 349.203125 216.382812 351.28125 197.292969 349.746094 L 190.15625 349.003906 C 187.792969 348.640625 185.429688 348.304688 183.074219 347.917969 C 180.738281 347.429688 178.386719 347.023438 176.058594 346.519531 L 172.585938 345.675781 L 170.847656 345.25 C 170.269531 345.105469 169.691406 344.980469 169.121094 344.796875 C 159.945312 342.25 151.007812 338.910156 142.503906 334.707031 C 134 330.503906 125.894531 325.53125 118.351562 319.816406 L 115.5625 317.621094 L 114.167969 316.53125 L 113.46875 315.984375 C 113.238281 315.796875 113.019531 315.597656 112.796875 315.40625 L 110.117188 313.082031 L 108.777344 311.917969 C 108.332031 311.53125 107.875 311.152344 107.457031 310.730469 C 105.761719 309.085938 104.027344 307.476562 102.339844 305.820312 L 97.460938 300.667969 L 92.835938 295.285156 C 91.359375 293.4375 89.933594 291.554688 88.472656 289.691406 C 88.101562 289.234375 87.773438 288.742188 87.429688 288.257812 L 86.414062 286.808594 L 84.375 283.910156 C 84.207031 283.664062 84.03125 283.429688 83.867188 283.179688 L 83.398438 282.429688 L 82.453125 280.933594 L 80.558594 277.933594 C 75.652344 269.855469 71.539062 261.292969 68.246094 252.417969 C 64.933594 243.542969 62.550781 234.324219 60.96875 224.957031 C 60.84375 224.375 60.78125 223.789062 60.695312 223.199219 L 60.457031 221.429688 L 59.972656 217.898438 C 59.714844 215.535156 59.550781 213.160156 59.316406 210.789062 C 59.175781 208.414062 59.089844 206.035156 58.972656 203.648438 L 58.980469 196.496094 C 59.441406 177.394531 63.546875 158.292969 71.09375 140.4375 C 74.851562 131.5 79.496094 122.890625 84.902344 114.714844 C 88.894531 108.683594 93.320312 102.914062 98.113281 97.394531 C 99.820312 95.429688 101.570312 93.492188 103.367188 91.59375 C 101.324219 93.152344 99.328125 94.777344 97.378906 96.453125 C 91.761719 101.289062 86.519531 106.609375 81.707031 112.328125 " fill-opacity="1" fill-rule="nonzero"/><g clip-path="url(#0d073d3c47)"><path fill="#fa1414" d="M 26.386719 78.171875 C 29.621094 97.546875 45.359375 114.1875 64.464844 118.765625 C 64.261719 115.390625 64.019531 112.03125 63.722656 108.683594 C 62.875 99.164062 61.582031 89.734375 59.382812 80.496094 C 57.183594 71.28125 54.035156 62.234375 49.640625 53.726562 C 45.253906 45.234375 39.582031 37.269531 32.421875 30.585938 C 40.484375 36.152344 47.484375 43.386719 53.304688 51.484375 C 59.132812 59.59375 63.828125 68.554688 67.5625 77.890625 C 71.300781 87.222656 74.117188 96.898438 76.441406 106.597656 C 76.917969 108.601562 77.382812 110.609375 77.820312 112.613281 C 88.839844 92.585938 87.917969 66.457031 75.28125 47.355469 C 67.660156 35.84375 56 27.230469 42.992188 22.703125 C 30.132812 18.230469 17.761719 18.753906 4.664062 18.898438 C 12.285156 19.832031 18.585938 25.789062 21.792969 32.753906 C 24.996094 39.714844 25.570312 47.578125 25.589844 55.234375 C 25.609375 62.898438 25.125 70.613281 26.386719 78.171875 " fill-opacity="1" fill-rule="nonzero"/></g><path fill="#fa1414" d="M 101.320312 120.984375 C 106.175781 120.289062 111.101562 120.089844 115.949219 120.574219 C 120.785156 121.050781 125.542969 122.242188 129.855469 124.28125 C 125.289062 122.890625 120.542969 122.4375 115.886719 122.65625 C 111.226562 122.875 106.636719 123.746094 102.207031 125.0625 C 97.765625 126.375 93.46875 128.125 89.234375 130.082031 C 87.75 130.769531 86.269531 131.484375 84.792969 132.21875 C 91.371094 139.140625 102.226562 141.722656 111.203125 138.378906 C 114.703125 137.074219 117.847656 134.996094 121.089844 133.140625 C 124.335938 131.289062 127.796875 129.625 131.519531 129.28125 C 135.242188 128.9375 139.289062 130.140625 141.539062 133.121094 C 138.417969 127.574219 135.632812 122.242188 130.621094 117.917969 C 125.546875 113.546875 119.070312 110.734375 112.355469 110.320312 C 101.210938 109.644531 89.941406 115.601562 84.152344 125.105469 C 85.105469 124.800781 86.066406 124.507812 87.03125 124.222656 C 91.695312 122.847656 96.46875 121.679688 101.320312 120.984375 " fill-opacity="1" fill-rule="nonzero"/><g clip-path="url(#baecf1414b)"><path fill="#ffffff" d="M 311.109375 190.542969 L 293.902344 190.542969 L 293.902344 292.871094 L 293.234375 293.394531 L 291.609375 294.671875 C 290.527344 295.527344 289.460938 296.402344 288.332031 297.191406 L 285.011719 299.636719 L 281.609375 301.960938 C 281.039062 302.339844 280.492188 302.75 279.90625 303.109375 L 278.167969 304.203125 L 276.433594 305.308594 L 275.570312 305.859375 L 274.683594 306.378906 L 271.148438 308.449219 C 270.570312 308.8125 269.953125 309.117188 269.359375 309.445312 L 267.554688 310.421875 L 265.757812 311.394531 L 263.925781 312.308594 L 262.097656 313.226562 C 261.484375 313.523438 260.886719 313.851562 260.261719 314.117188 C 259.015625 314.675781 257.78125 315.246094 256.542969 315.816406 C 255.929688 316.113281 255.300781 316.367188 254.667969 316.628906 L 252.785156 317.40625 C 247.757812 319.492188 242.636719 321.347656 237.414062 322.871094 L 235.460938 323.46875 C 234.8125 323.667969 234.148438 323.824219 233.492188 324.003906 L 229.546875 325.039062 L 225.566406 325.953125 L 224.574219 326.183594 C 224.242188 326.253906 223.90625 326.3125 223.574219 326.378906 L 221.570312 326.765625 C 218.90625 327.347656 216.199219 327.679688 213.515625 328.140625 C 210.808594 328.46875 208.105469 328.851562 205.382812 329.066406 C 204.023438 329.1875 202.664062 329.335938 201.300781 329.390625 L 197.207031 329.632812 C 194.476562 329.671875 191.734375 329.828125 188.992188 329.746094 C 186.246094 329.773438 183.507812 329.59375 180.753906 329.503906 L 176.636719 329.195312 C 175.949219 329.132812 175.257812 329.117188 174.574219 329.03125 L 172.515625 328.804688 L 170.457031 328.582031 L 169.425781 328.472656 L 168.398438 328.324219 L 164.285156 327.742188 C 162.910156 327.535156 161.550781 327.269531 160.179688 327.03125 L 158.121094 326.671875 L 156.078125 326.238281 L 154.03125 325.804688 C 153.347656 325.664062 152.65625 325.535156 151.984375 325.359375 L 147.902344 324.359375 C 147.5625 324.273438 147.21875 324.203125 146.878906 324.109375 L 145.871094 323.820312 L 143.839844 323.25 L 141.800781 322.683594 C 141.460938 322.597656 141.125 322.484375 140.792969 322.378906 L 139.78125 322.058594 L 138.152344 321.550781 L 138.152344 190.542969 L 120.945312 190.542969 L 216.027344 111.15625 L 280.457031 164.953125 L 293.542969 175.882812 Z M 309.3125 111.601562 L 270.835938 111.601562 L 270.835938 132.085938 L 216.027344 86.324219 L 68.347656 209.621094 L 119.117188 209.621094 L 119.117188 314.382812 C 115.351562 312.734375 111.597656 310.972656 107.832031 309.132812 C 116.007812 317.625 125.730469 324.671875 136.253906 330.421875 C 141.527344 333.273438 147.003906 335.835938 152.675781 337.921875 L 154.796875 338.726562 C 155.507812 338.984375 156.226562 339.214844 156.945312 339.453125 C 158.386719 339.917969 159.820312 340.414062 161.269531 340.855469 L 165.652344 342.082031 L 166.75 342.386719 L 167.859375 342.652344 L 170.078125 343.167969 C 173.035156 343.910156 176.039062 344.386719 179.039062 344.945312 C 182.054688 345.371094 185.078125 345.835938 188.125 346.082031 C 191.160156 346.410156 194.214844 346.527344 197.277344 346.675781 C 200.335938 346.703125 203.398438 346.785156 206.460938 346.621094 C 209.527344 346.570312 212.582031 346.269531 215.640625 346.03125 C 217.164062 345.867188 218.6875 345.671875 220.210938 345.484375 C 220.96875 345.378906 221.738281 345.3125 222.488281 345.175781 L 224.761719 344.804688 C 227.804688 344.351562 230.796875 343.667969 233.808594 343.042969 C 235.300781 342.691406 236.785156 342.285156 238.273438 341.910156 C 239.015625 341.714844 239.765625 341.542969 240.5 341.320312 L 242.710938 340.664062 L 244.917969 339.992188 L 246.019531 339.65625 L 247.109375 339.277344 L 251.460938 337.761719 C 252.902344 337.226562 254.324219 336.632812 255.753906 336.070312 C 256.464844 335.78125 257.183594 335.511719 257.886719 335.207031 L 259.996094 334.269531 L 262.09375 333.316406 C 262.792969 333.003906 263.496094 332.691406 264.175781 332.335938 L 268.296875 330.269531 C 268.984375 329.933594 269.648438 329.539062 270.320312 329.171875 L 272.332031 328.050781 L 274.34375 326.925781 L 276.300781 325.71875 C 281.570312 322.570312 286.554688 318.972656 291.335938 315.15625 C 292.523438 314.191406 293.703125 313.214844 294.875 312.238281 L 298.285156 309.175781 C 299.429688 308.167969 300.503906 307.082031 301.59375 306.015625 L 303.21875 304.40625 L 304.027344 303.597656 L 304.804688 302.761719 L 307.898438 299.410156 C 308.921875 298.292969 309.90625 297.128906 310.886719 295.96875 C 312.820312 293.625 314.691406 291.242188 316.464844 288.789062 C 320.019531 283.886719 323.222656 278.769531 326.0625 273.480469 C 328.898438 268.1875 331.367188 262.722656 333.40625 257.132812 C 335.453125 251.546875 337.085938 245.839844 338.167969 240.042969 C 335.148438 245.101562 332.078125 250.027344 328.820312 254.765625 C 327.167969 257.121094 325.519531 259.457031 323.789062 261.71875 L 322.488281 263.417969 L 321.183594 265.101562 C 320.300781 266.210938 319.414062 267.316406 318.5 268.398438 C 316.6875 270.589844 314.832031 272.726562 312.9375 274.816406 L 312.9375 209.621094 L 363.703125 209.621094 L 318.929688 172.238281 L 309.3125 164.207031 L 309.3125 111.601562 " fill-opacity="1" fill-rule="nonzero"/></g><g clip-path="url(#f768093dc5)"><path fill="#fa1414" d="M 117.410156 77.859375 C 123.386719 74.859375 129.671875 72.476562 136.144531 71.015625 C 142.609375 69.550781 149.273438 69.046875 155.726562 69.839844 C 149.226562 70.003906 142.894531 71.460938 136.96875 73.75 C 131.035156 76.042969 125.472656 79.15625 120.3125 82.769531 C 115.140625 86.398438 110.332031 90.519531 105.703125 94.886719 C 104.078125 96.421875 102.472656 97.988281 100.878906 99.578125 C 112.367188 105.742188 127.523438 104.414062 137.683594 96.199219 C 141.652344 92.996094 144.824219 88.9375 148.21875 85.132812 C 151.613281 81.328125 155.375 77.664062 160.039062 75.617188 C 164.703125 73.566406 170.457031 73.382812 174.648438 76.289062 C 168.222656 70.425781 162.324219 64.699219 153.976562 61.242188 C 145.527344 57.746094 135.945312 56.882812 127.078125 59.246094 C 112.378906 63.167969 100.375 75.773438 96.980469 90.613281 C 98.085938 89.808594 99.199219 89.011719 100.324219 88.226562 C 105.761719 84.425781 111.433594 80.851562 117.410156 77.859375 " fill-opacity="1" fill-rule="nonzero"/></g><g clip-path="url(#33664be531)"><path fill="#fa1414" d="M 81.332031 112.328125 L 80.710938 113.042969 L 80.128906 113.777344 L 78.960938 115.261719 L 76.640625 118.238281 L 76.058594 118.984375 C 75.867188 119.234375 75.695312 119.5 75.511719 119.753906 L 74.425781 121.300781 L 72.25 124.398438 C 71.5 125.417969 70.871094 126.511719 70.195312 127.578125 L 68.191406 130.804688 C 67.496094 131.863281 66.921875 132.992188 66.296875 134.09375 L 64.449219 137.417969 C 54.925781 155.34375 49.136719 175.410156 47.527344 195.90625 C 47.390625 198.46875 47.242188 201.039062 47.125 203.609375 C 47.117188 206.183594 47.082031 208.757812 47.101562 211.332031 L 47.277344 215.195312 L 47.371094 217.125 C 47.410156 217.769531 47.414062 218.414062 47.488281 219.054688 L 47.855469 222.90625 L 48.039062 224.828125 C 48.105469 225.472656 48.152344 226.117188 48.257812 226.753906 C 49.511719 237.003906 51.886719 247.125 55.195312 256.933594 C 58.507812 266.746094 62.859375 276.214844 68.101562 285.160156 L 70.136719 288.472656 L 71.152344 290.128906 L 71.664062 290.957031 C 71.839844 291.230469 72.027344 291.492188 72.207031 291.761719 L 74.40625 294.96875 L 75.507812 296.570312 C 75.878906 297.101562 76.234375 297.648438 76.636719 298.152344 C 78.21875 300.203125 79.777344 302.277344 81.386719 304.304688 L 86.421875 310.222656 L 91.765625 315.859375 C 92.675781 316.78125 93.632812 317.65625 94.5625 318.554688 L 97.378906 321.234375 C 97.839844 321.691406 98.339844 322.097656 98.832031 322.523438 L 100.304688 323.789062 L 103.257812 326.316406 C 103.503906 326.523438 103.746094 326.738281 103.996094 326.941406 L 104.765625 327.539062 L 106.300781 328.726562 L 109.378906 331.097656 C 117.707031 337.253906 126.644531 342.582031 136.035156 346.90625 C 145.417969 351.230469 155.214844 354.648438 165.25 356.96875 C 165.871094 357.136719 166.507812 357.253906 167.136719 357.382812 L 172.808594 358.542969 C 173.4375 358.683594 174.078125 358.75 174.710938 358.859375 L 176.617188 359.152344 L 180.429688 359.730469 C 182.980469 360.019531 185.542969 360.25 188.089844 360.511719 C 190.65625 360.660156 193.21875 360.785156 195.773438 360.917969 C 216.277344 361.449219 236.785156 357.777344 255.5625 350.15625 C 264.945312 346.34375 273.90625 341.589844 282.214844 335.953125 C 290.53125 330.328125 298.214844 323.851562 305.042969 316.636719 C 297.160156 322.671875 288.863281 328.03125 280.191406 332.550781 C 271.519531 337.0625 262.496094 340.773438 253.242188 343.574219 C 234.738281 349.199219 215.355469 351.277344 196.359375 349.742188 L 189.253906 349 C 186.90625 348.636719 184.550781 348.300781 182.207031 347.914062 C 179.882812 347.425781 177.542969 347.019531 175.226562 346.515625 L 171.769531 345.667969 L 170.042969 345.246094 C 169.46875 345.101562 168.886719 344.976562 168.324219 344.792969 C 159.191406 342.246094 150.296875 338.90625 141.835938 334.703125 C 133.375 330.5 125.308594 325.527344 117.800781 319.8125 L 115.027344 317.617188 L 113.636719 316.527344 L 112.941406 315.980469 C 112.714844 315.792969 112.496094 315.59375 112.273438 315.402344 L 109.605469 313.078125 L 108.273438 311.917969 C 107.828125 311.527344 107.375 311.152344 106.957031 310.730469 C 105.269531 309.082031 103.542969 307.472656 101.867188 305.816406 L 97.011719 300.664062 L 92.40625 295.28125 C 90.941406 293.4375 89.519531 291.550781 88.066406 289.691406 C 87.695312 289.230469 87.367188 288.742188 87.027344 288.257812 L 86.015625 286.808594 L 83.988281 283.910156 C 83.820312 283.664062 83.644531 283.425781 83.484375 283.179688 L 83.015625 282.429688 L 80.191406 277.929688 C 75.308594 269.851562 71.214844 261.292969 67.9375 252.414062 C 64.644531 243.542969 62.269531 234.324219 60.695312 224.957031 C 60.574219 224.375 60.507812 223.785156 60.425781 223.195312 L 60.183594 221.429688 L 59.703125 217.898438 C 59.449219 215.535156 59.285156 213.160156 59.050781 210.789062 C 58.914062 208.414062 58.824219 206.035156 58.707031 203.648438 L 58.714844 196.496094 C 59.175781 177.394531 63.261719 158.292969 70.769531 140.4375 C 74.511719 131.503906 79.132812 122.890625 84.511719 114.71875 C 88.488281 108.6875 92.890625 102.917969 97.660156 97.398438 C 99.355469 95.433594 101.097656 93.496094 102.886719 91.59375 C 100.855469 93.15625 98.871094 94.777344 96.929688 96.457031 C 91.339844 101.292969 86.121094 106.613281 81.332031 112.328125 " fill-opacity="1" fill-rule="nonzero"/></g><g clip-path="url(#5a2f308c74)"><path fill="#fa1414" d="M 26.28125 78.175781 C 29.5 97.550781 45.164062 114.191406 64.175781 118.769531 C 63.972656 115.394531 63.730469 112.03125 63.433594 108.6875 C 62.59375 99.167969 61.304688 89.734375 59.117188 80.5 C 56.925781 71.285156 53.792969 62.238281 49.421875 53.730469 C 45.058594 45.238281 39.410156 37.273438 32.289062 30.589844 C 40.308594 36.15625 47.277344 43.390625 53.066406 51.488281 C 58.871094 59.597656 63.542969 68.554688 67.257812 77.890625 C 70.976562 87.226562 73.78125 96.902344 76.09375 106.601562 C 76.570312 108.605469 77.027344 110.613281 77.464844 112.617188 C 88.433594 92.589844 87.511719 66.460938 74.941406 47.359375 C 67.355469 35.847656 55.753906 27.234375 42.804688 22.707031 C 30.007812 18.234375 17.699219 18.757812 4.664062 18.90625 C 12.25 19.835938 18.519531 25.792969 21.707031 32.757812 C 24.898438 39.71875 25.46875 47.582031 25.488281 55.238281 C 25.507812 62.902344 25.027344 70.617188 26.28125 78.175781 " fill-opacity="1" fill-rule="nonzero"/></g><path fill="#fa1414" d="M 100.851562 120.988281 C 105.683594 120.289062 110.585938 120.089844 115.40625 120.574219 C 120.21875 121.050781 124.953125 122.242188 129.246094 124.28125 C 124.703125 122.894531 119.980469 122.4375 115.347656 122.660156 C 110.707031 122.878906 106.140625 123.75 101.734375 125.0625 C 97.316406 126.378906 93.035156 128.125 88.824219 130.082031 C 87.347656 130.769531 85.875 131.488281 84.402344 132.21875 C 90.949219 139.144531 101.753906 141.726562 110.683594 138.378906 C 114.167969 137.074219 117.300781 134.996094 120.527344 133.140625 C 123.753906 131.289062 127.199219 129.625 130.902344 129.28125 C 134.609375 128.9375 138.636719 130.140625 140.871094 133.125 C 137.765625 127.574219 134.996094 122.242188 130.007812 117.921875 C 124.957031 113.550781 118.515625 110.734375 111.832031 110.324219 C 100.742188 109.648438 89.527344 115.605469 83.765625 125.105469 C 84.714844 124.800781 85.671875 124.511719 86.628906 124.226562 C 91.269531 122.847656 96.023438 121.679688 100.851562 120.988281 " fill-opacity="1" fill-rule="nonzero"/><g clip-path="url(#7a48c872cb)"><g clip-path="url(#0f1ebc5186)"><g clip-path="url(#f4eaecb417)"><path fill="#0d3f7d" d="M 147.875 143.800781 L 175.976562 119.816406 L 186.636719 132.308594 L 158.535156 156.289062 Z M 147.875 143.800781 " fill-opacity="1" fill-rule="nonzero"/></g></g></g></svg>