<svg id="Chauffe-eau_thermodynamique" xmlns="http://www.w3.org/2000/svg" width="26" height="26" viewBox="0 0 26 26">
  <defs>
    <style>
      .cls-1 {
        fill: none;
      }

      .cls-2 {
        fill: #003250;
      }

      .cls-3 {
        fill: #f57421;
      }
    </style>
  </defs>
  <g id="Groupe_8066" data-name="Groupe 8066">
    <rect id="Rectangle_2662" data-name="Rectangle 2662" class="cls-1" width="26" height="26"/>
  </g>
  <path id="Tracé_25904" data-name="Tracé 25904" class="cls-2" d="M57.332,71.82a.812.812,0,1,1-.812.812.812.812,0,0,1,.812-.812m0-1.12a1.932,1.932,0,1,0,1.932,1.932A1.936,1.936,0,0,0,57.332,70.7Z" transform="translate(-39.89 -50.907)"/>
  <g id="Groupe_8067" data-name="Groupe 8067" transform="translate(14.666 8.483)">
    <path id="Tracé_25905" data-name="Tracé 25905" class="cls-3" d="M56.662,31.2a6.719,6.719,0,0,1-1.428,2.156c-1.512,1.764-.644,4.087,1.4,4.087h.028c2.044,0,2.912-2.324,1.4-4.087A14.081,14.081,0,0,1,56.662,31.2Z" transform="translate(-53.886 -30.948)"/>
    <path id="Tracé_25906" data-name="Tracé 25906" class="cls-2" d="M55.161,37.355a2.688,2.688,0,0,1-2.52-1.54,3.308,3.308,0,0,1,.644-3.5,7.175,7.175,0,0,0,1.316-1.9l1.036-.112a14.165,14.165,0,0,0,1.344,2.044,3.25,3.25,0,0,1,.616,3.472A2.5,2.5,0,0,1,55.161,37.355Zm.028-5.655a9.751,9.751,0,0,1-1.036,1.344,2.143,2.143,0,0,0-.476,2.3,1.505,1.505,0,0,0,1.456.868,1.563,1.563,0,0,0,1.484-.868,2.2,2.2,0,0,0-.476-2.3l-.028-.028A14.971,14.971,0,0,1,55.189,31.7Z" transform="translate(-52.385 -30.3)"/>
  </g>
  <rect id="Rectangle_2663" data-name="Rectangle 2663" class="cls-2" width="1.12" height="3.332" transform="translate(11.87 5.711)"/>
  <rect id="Rectangle_2664" data-name="Rectangle 2664" class="cls-2" width="1.12" height="3.332" transform="translate(10.359 5.711)"/>
  <rect id="Rectangle_2665" data-name="Rectangle 2665" class="cls-2" width="1.12" height="3.332" transform="translate(13.354 5.711)"/>
  <g id="Groupe_8071" data-name="Groupe 8071" transform="translate(1.607 4.227)">
    <g id="Groupe_8068" data-name="Groupe 8068" transform="translate(0 4.507)">
      <path id="Union_14" data-name="Union 14" class="cls-2" d="M5721.69,161.693a.714.714,0,0,1-.28-.364.624.624,0,0,1,.056-.448.72.72,0,0,1,.364-.28.363.363,0,0,1,.168-.027.542.542,0,0,1,.28.083,1.9,1.9,0,0,0,1.791,0,2.907,2.907,0,0,1,2.912,0,.6.6,0,0,1,.308.532.549.549,0,0,1-.083.28.714.714,0,0,1-.365.28.365.365,0,0,1-.168.027.535.535,0,0,1-.279-.083,2.03,2.03,0,0,0-.9-.224,1.94,1.94,0,0,0-.9.224,2.909,2.909,0,0,1-1.456.392A2.988,2.988,0,0,1,5721.69,161.693Z" transform="translate(-5721.393 -160.265)"/>
    </g>
    <g id="Groupe_8069" data-name="Groupe 8069" transform="translate(0 2.268)">
      <path id="Union_13" data-name="Union 13" class="cls-2" d="M5721.69,163.905a.72.72,0,0,1-.28-.364.623.623,0,0,1,.056-.448.72.72,0,0,1,.364-.28.363.363,0,0,1,.168-.027.542.542,0,0,1,.28.083,1.81,1.81,0,0,0,1.791.029,2.994,2.994,0,0,1,2.912-.029.6.6,0,0,1,.308.532.553.553,0,0,1-.083.28.6.6,0,0,1-.533.308.535.535,0,0,1-.279-.083,1.9,1.9,0,0,0-1.792,0,2.908,2.908,0,0,1-1.456.391A2.987,2.987,0,0,1,5721.69,163.905Z" transform="translate(-5721.393 -162.505)"/>
    </g>
    <g id="Groupe_8070" data-name="Groupe 8070">
      <path id="Union_12" data-name="Union 12" class="cls-2" d="M5721.69,166.2a.72.72,0,0,1-.28-.364.623.623,0,0,1,.056-.448.72.72,0,0,1,.364-.28.363.363,0,0,1,.168-.027.542.542,0,0,1,.28.083,1.9,1.9,0,0,0,1.791,0,2.907,2.907,0,0,1,2.912,0,.6.6,0,0,1,.308.532.549.549,0,0,1-.083.28.722.722,0,0,1-.365.28.365.365,0,0,1-.168.027.535.535,0,0,1-.279-.083,1.9,1.9,0,0,0-1.792,0,2.909,2.909,0,0,1-1.456.392A2.988,2.988,0,0,1,5721.69,166.2Z" transform="translate(-5721.393 -164.773)"/>
    </g>
  </g>
  <path id="Tracé_25913" data-name="Tracé 25913" class="cls-2" d="M48.994,0H39.028A2.127,2.127,0,0,0,36.9,2.128V4.255H49.974v19.4a1,1,0,0,1-1.008,1.008H39.028a1,1,0,0,1-1.008-1.008v-13.3H36.9V23.6a2.127,2.127,0,0,0,2.128,2.128h9.939A2.127,2.127,0,0,0,51.094,23.6V2.128A2.121,2.121,0,0,0,48.994,0ZM38.02,3.136V2.128A1,1,0,0,1,39.028,1.12h9.939a1,1,0,0,1,1.008,1.008V3.136Z" transform="translate(-26.569)"/>
</svg>
