<svg xmlns="http://www.w3.org/2000/svg" width="26" height="26" viewBox="0 0 26 26">
  <defs>
    <style>
      .cls-1 {
        fill: none;
      }

      .cls-2 {
        fill: #003250;
      }

      .cls-3 {
        fill: #f57421;
      }
    </style>
  </defs>
  <g id="Chaudiere_gaz" transform="translate(-0.186 -0.185)">
    <rect id="Rectangle_2710" data-name="Rectangle 2710" class="cls-1" width="26" height="26" transform="translate(0.186 0.185)"/>
    <g id="Chaudière_fioul_autre_qu_à_condensation__1_" transform="translate(12.259 20.826)">
      <g id="Groupe_4318_1_" transform="translate(0)">
        <path id="Tracé_26034" data-name="Tracé 26034" class="cls-2" d="M9.342-29.916A1.838,1.838,0,0,1,7.5-31.758,1.838,1.838,0,0,1,9.342-33.6a1.838,1.838,0,0,1,1.842,1.842A1.838,1.838,0,0,1,9.342-29.916Zm0-2.55a.7.7,0,0,0-.708.708.7.7,0,0,0,.708.708.7.7,0,0,0,.708-.708A.7.7,0,0,0,9.342-32.467Z" transform="translate(-3.25 33.6)"/>
        <path id="Tracé_26035" data-name="Tracé 26035" class="cls-2" d="M-5.658-29.916A1.838,1.838,0,0,1-7.5-31.758,1.838,1.838,0,0,1-5.658-33.6a1.838,1.838,0,0,1,1.842,1.842A1.856,1.856,0,0,1-5.658-29.916Zm0-2.55a.7.7,0,0,0-.708.708.7.7,0,0,0,.708.708.7.7,0,0,0,.708-.708A.72.72,0,0,0-5.658-32.467Z" transform="translate(7.5 33.6)"/>
      </g>
    </g>
    <rect id="Rectangle_2711" data-name="Rectangle 2711" class="cls-2" width="18.673" height="1.133" transform="translate(3.476 19.202)"/>
    <g id="Groupe_8148" data-name="Groupe 8148" transform="translate(2.853 0.189)">
      <g id="Groupe_8147" data-name="Groupe 8147">
        <g id="Groupe_8146" data-name="Groupe 8146">
          <path id="Tracé_26036" data-name="Tracé 26036" class="cls-2" d="M28.53,26.3,10.367,26.27,9.8,25.7V.967L10.367.4H28.53L29.1.967,29.068,25.7Zm-17.6-1.162,17.03.028.028-23.6H10.933Z" transform="translate(-9.8 -0.4)"/>
        </g>
      </g>
    </g>
    <path id="Tracé_26038" data-name="Tracé 26038" class="cls-3" d="M44.2,50.693a3.842,3.842,0,0,0,3.847-4.154c0-3-3.077-3.462-3.077-7.539-2.539,1.769-4.77,4.693-4.77,7C40.2,48.232,41.816,50.693,44.2,50.693Z" transform="translate(-31.307 -33.747)"/>
    <path id="Tracé_26037" data-name="Tracé 26037" class="cls-2" d="M34.235,29.168c-2.607,0-4.335-2.607-4.335-5.015,0-2.579,2.38-5.554,4.76-7.141l.482-.312.652.935-.482.312c-2.437,1.643-4.25,4.335-4.25,6.205s1.275,3.882,3.2,3.882c2.125,0,3.06-1.7,3.06-3.372a4.024,4.024,0,0,0-1.162-2.635,7.838,7.838,0,0,1-1.417-2.465l-.17-.538,1.077-.34.17.538a6.79,6.79,0,0,0,1.247,2.125,5.181,5.181,0,0,1,1.388,3.344A4.194,4.194,0,0,1,34.235,29.168Z" transform="translate(-21.352 -11.892)"/>
    <g id="Groupe_8149" data-name="Groupe 8149" transform="translate(10.9 10.645)">
      <path id="Tracé_26039" data-name="Tracé 26039" class="cls-2" d="M40.24,42.655a2.2,2.2,0,0,1-2.04-2.3,4.285,4.285,0,0,1,1.983-3.06l.878.482a1.816,1.816,0,0,0,.51,1.275,2.3,2.3,0,0,1,.623,1.5A1.945,1.945,0,0,1,40.24,42.655Zm-.085-3.825a2.581,2.581,0,0,0-.793,1.53c0,.538.368,1.162.907,1.162a.86.86,0,0,0,.85-.963,1.251,1.251,0,0,0-.368-.822A2.406,2.406,0,0,1,40.155,38.83Z" transform="translate(-38.2 -37.3)"/>
    </g>
  </g>
</svg>
