<svg xmlns="http://www.w3.org/2000/svg" width="50" height="50" viewBox="0 0 50 50">
    <defs>
        <style>
            .cls-1{fill:#ffd0b6}.cls-4{fill:#003250}
        </style>
    </defs>
    <g id="chauffage-red" transform="translate(-898 -2072)">
        <rect id="Rectangle_5187" width="36" height="36" class="cls-1" rx="18" transform="translate(912 2086)"/>
        <g id="icon_poele_bois_cta" transform="translate(898 2072)">
            <path id="Tracé_28843" fill="#fff" d="M30.254 16.687v17.031l-3.992 2.224v3.733h-4.123v-3.733H8.942v3.188H5.416l-.605-3.188H3.482L.808 33.718V9.232L2.99 6.625h26.215s.787.557 1.049 3.073a57.625 57.625 0 0 1 0 6.989z" transform="translate(4.472)"/>
            <g id="Groupe_7972">
                <g id="Groupe_7971">
                    <path id="Rectangle_2586" fill="none" d="M0 0H40V40H0z"/>
                </g>
            </g>
            <g id="Groupe_7973" transform="translate(14.325 13.457)">
                <path id="Tracé_25793" d="M44.311 39.984a4.933 4.933 0 0 0-1-2.952c-.13 1.519-.651 2.3-1.3 2.17-.087-4.515-1.91-6.077-3.212-6.9a11.405 11.405 0 0 1-2.388 7.032c-1.042-.478-.868-2.344-.868-2.344a4.917 4.917 0 0 0 3.863 7.944c2.994-.045 4.905-1.304 4.905-4.95z" class="cls-1" transform="translate(-33.849 -31.736)"/>
                <path id="Tracé_25794" d="M38.556 44.8A5.539 5.539 0 0 1 33 39.248a5.47 5.47 0 0 1 1.172-3.429l1.172.434a3.378 3.378 0 0 0 .174 1.259 10.822 10.822 0 0 0 1.78-5.947l1-.564c1.3.825 3 2.3 3.429 5.991q.065-.326.13-.781l1.172-.347a5.449 5.449 0 0 1 1.127 3.336q-.065 5.6-5.6 5.6zm-4.167-6.511a6.5 6.5 0 0 0-.087.955 4.261 4.261 0 0 0 4.254 4.256c2.952 0 4.254-1.3 4.254-4.254a4.373 4.373 0 0 0-.13-1.085 2.237 2.237 0 0 1-.521.695 1.4 1.4 0 0 1-1.085.3l-.564-.651c-.087-3.126-.955-4.688-1.953-5.643a12.506 12.506 0 0 1-2.474 6.164l-.783.174a2.612 2.612 0 0 1-.911-.907z" class="cls-4" transform="translate(-33 -31)"/>
            </g>
            <path id="Union_16" d="M22.53 39.981l-.868-.868v-2.562H9.724v2.561l-.868.868h-3.82l-.868-.868v-2.561h-.696A3.482 3.482 0 0 1 0 33.078V9.246a3.482 3.482 0 0 1 3.472-3.473h6.9V0h1.737v5.773h7.162V0h1.739v5.773h6.555a3.482 3.482 0 0 1 3.472 3.472V26.7H29.3V9.246a1.741 1.741 0 0 0-1.735-1.736H3.472a1.741 1.741 0 0 0-1.736 1.736v23.832a1.741 1.741 0 0 0 1.736 1.737h24.093a1.741 1.741 0 0 0 1.735-1.737v-2.431h1.736v2.431a3.492 3.492 0 0 1-3.515 3.473h-.3v2.561l-.868.868zm.868-1.737h2.084v-1.65H23.4zm-17.494 0h2.084v-1.65H5.9z" class="cls-4" transform="translate(4.472)"/>
            <path id="Tracé_25796" d="M39.974 45.392H23.391A2.7 2.7 0 0 1 20.7 42.7V26.291a2.7 2.7 0 0 1 2.691-2.691h16.626a2.7 2.7 0 0 1 2.691 2.691v16.453a2.734 2.734 0 0 1-2.734 2.648zM23.391 25.38a.963.963 0 0 0-.955.955v16.452a.963.963 0 0 0 .955.955h16.626a.963.963 0 0 0 .955-.955v-16.5a.963.963 0 0 0-.955-.955H23.391z" class="cls-4" transform="translate(-11.714 -13.355)"/>
            <path id="Union_15" d="M6.975 2.874L.305 3.982.021 2.268l1.654-.275L0 1.715.284 0l6.691 1.113L13.682 0l.284 1.713-1.691.281 1.67.277-.284 1.714z" class="cls-4" transform="translate(12.824 25.011)"/>
        </g>
    </g>
</svg>
