<svg xmlns="http://www.w3.org/2000/svg" width="36" height="36" viewBox="0 0 36 36">
    <defs>
        <style>
            .cls-1{fill:#fff}.cls-3{fill:#003250}
        </style>
    </defs>
    <g id="chauffage_selected" transform="translate(-881 -2152)">
        <circle id="Ellipse_423" cx="18" cy="18" r="18" class="cls-1" transform="translate(881 2152)"/>
        <g id="icon_heat" transform="translate(891 2160)">
            <path id="Tracé_28490" d="M-.337-1.009l.176-.073h1.694l.156.073v1.59l-.135.054H-.235L-.367.52z" class="cls-1" transform="translate(2.836 18.944)"/>
            <path id="Tracé_28491" d="M-.342-1.009l.142-.073h1.409l.129.073v1.59l-.112.054H-.258L-.367.52z" class="cls-1" transform="translate(12.125 18.944)"/>
            <path id="Tracé_28489" d="M-.145-.463l1.308-.62H13.79l1.161.62v13.429l-1.005.461H.616l-.983-.976z" class="cls-1" transform="translate(.729 4.434)"/>
            <path id="Tracé_2077" fill="#f57421" d="M5.248 9.89h9.273l.635.707v8.751l-.883.827H5.248l-1.1-.827V10.6z" transform="translate(-1.772 -4.314)"/>
            <path id="Tracé_2070" d="M14.289 33.291H1.711A1.673 1.673 0 0 1 0 31.644v-12A1.684 1.684 0 0 1 1.711 18h12.578A1.673 1.673 0 0 1 16 19.647v8.786h-.691v-8.786a.992.992 0 0 0-1.019-.982H1.711a1 1 0 0 0-1.019.982v12a.992.992 0 0 0 1.019.982h12.578a.992.992 0 0 0 1.019-.982v-1.234H16v1.231a1.7 1.7 0 0 1-1.711 1.647z" class="cls-3" transform="translate(0 -15.018)"/>
            <path id="Tracé_2071" d="M23.795 42.446h-8.783a1.284 1.284 0 0 1-1.312-1.257v-8.332a1.284 1.284 0 0 1 1.312-1.257h8.782a1.284 1.284 0 0 1 1.312 1.257v8.332a1.306 1.306 0 0 1-1.311 1.257zm-8.783-10.159a.6.6 0 0 0-.612.587v8.332a.6.6 0 0 0 .612.587h8.782a.6.6 0 0 0 .612-.587v-8.349a.6.6 0 0 0-.612-.587h-8.782z" class="cls-3" transform="translate(-11.403 -26.388)"/>
            <path id="Rectangle_895" d="M0 0H0.671V3.202H0z" class="cls-3" transform="translate(5.433)"/>
            <path id="Rectangle_896" d="M0 0H0.671V3.202H0z" class="cls-3" transform="translate(10.087)"/>
            <path id="Tracé_2072" d="M14.963 108.3h-1.928l-.335-.335v-1.727l.335-.335h1.928l.335.335v1.727zm-1.593-.671h1.257v-1.056h-1.256z" class="cls-3" transform="translate(-10.571 -88.297)"/>
            <path id="Tracé_2073" d="M67.78 108.3h-1.945l-.335-.335v-1.727l.335-.335h1.928l.335.335v1.727zm-1.609-.671h1.257v-1.056h-1.257z" class="cls-3" transform="translate(-54.043 -88.297)"/>
            <g id="Groupe_2159" transform="translate(4.71 7.427)">
                <path id="Tracé_2074" d="M27.71 45.467a.338.338 0 0 0 .034-.285.37.37 0 0 0-.184-.235.338.338 0 0 0-.285-.034.37.37 0 0 0-.235.184 3.264 3.264 0 0 0 0 3.185 2.539 2.539 0 0 1 0 2.448.338.338 0 0 0-.034.285.37.37 0 0 0 .184.235.338.338 0 0 0 .184.05.369.369 0 0 0 .335-.2 3.264 3.264 0 0 0 0-3.185 2.539 2.539 0 0 1 .001-2.448z" class="cls-3" transform="translate(-26.625 -44.879)"/>
                <path id="Tracé_2075" d="M43.81 45.467a.338.338 0 0 0 .034-.285.37.37 0 0 0-.184-.235.338.338 0 0 0-.285-.034.37.37 0 0 0-.235.184 3.264 3.264 0 0 0 0 3.185 2.539 2.539 0 0 1 0 2.448.384.384 0 0 0 .151.52.338.338 0 0 0 .184.05.369.369 0 0 0 .335-.2 3.264 3.264 0 0 0 0-3.185 2.454 2.454 0 0 1 0-2.448z" class="cls-3" transform="translate(-40.026 -44.879)"/>
                <path id="Tracé_2076" d="M59.81 47.814a2.539 2.539 0 0 1 0-2.448.338.338 0 0 0 .034-.285.37.37 0 0 0-.184-.235.338.338 0 0 0-.285-.034.37.37 0 0 0-.235.188 3.264 3.264 0 0 0 0 3.185 2.539 2.539 0 0 1 0 2.448.338.338 0 0 0-.034.285.37.37 0 0 0 .184.235.338.338 0 0 0 .184.05.369.369 0 0 0 .335-.2 3.264 3.264 0 0 0 .001-3.189z" class="cls-3" transform="translate(-53.344 -44.796)"/>
            </g>
        </g>
    </g>
</svg>
