<svg xmlns="http://www.w3.org/2000/svg" width="36" height="36" viewBox="0 0 36 36">
    <circle data-name="Ellipse 4" cx="18" cy="18" r="18" style="fill:#fff"/>
    <path data-name="Icon metro-twitter" d="M25.967 7.068a9.6 9.6 0 0 1-2.757.756 4.814 4.814 0 0 0 2.11-2.656 9.609 9.609 0 0 1-3.048 1.165 4.8 4.8 0 0 0-8.179 4.378A13.627 13.627 0 0 1 4.2 5.7a4.805 4.805 0 0 0 1.485 6.4 4.78 4.78 0 0 1-2.174-.6v.06a4.8 4.8 0 0 0 3.85 4.707 4.808 4.808 0 0 1-2.168.082 4.8 4.8 0 0 0 4.484 3.333 9.63 9.63 0 0 1-5.961 2.055 9.736 9.736 0 0 1-1.145-.067 13.586 13.586 0 0 0 7.358 2.157 13.564 13.564 0 0 0 13.656-13.653q0-.312-.014-.621a9.751 9.751 0 0 0 2.4-2.485z" transform="translate(4.784 4.812)" style="fill:#003250"/>
</svg>
