<svg xmlns="http://www.w3.org/2000/svg" width="36" height="36" viewBox="0 0 36 36">
    <circle data-name="Ellipse 6" cx="18" cy="18" r="18" style="fill:#fff"/>
    <circle data-name="Ellipse 7" cx="18" cy="18" r="18" style="fill:#fff"/>
    <path data-name="Icon awesome-linkedin" d="M8.875 26.371H4.8V13.262h4.081v13.109zm-2.035-14.9a2.361 2.361 0 1 1 2.36-2.36 2.362 2.362 0 0 1-2.36 2.36zm17.3 14.9h-4.075v-6.377c0-1.521-.031-3.477-2.115-3.477-2.122 0-2.446 1.656-2.446 3.366v6.487h-4.072V13.262h3.906v1.79h.055a4.288 4.288 0 0 1 3.857-2.115c4.12 0 4.887 2.716 4.887 6.248z" transform="translate(3.692 1.439)" style="fill:#003250"/>
</svg>
