<svg xmlns="http://www.w3.org/2000/svg" width="26" height="26" viewBox="0 0 26 26">
  <defs>
    <style>
      .cls-1 {
        fill: rgba(255,255,255,0);
      }

      .cls-2 {
        fill: #f57421;
      }

      .cls-3 {
        fill: #003250;
      }
    </style>
  </defs>
  <g id="PAC" transform="translate(-969.281 -664.047)">
    <rect id="Rectangle_924" data-name="Rectangle 924" class="cls-1" width="26" height="26" transform="translate(969.282 664.047)"/>
    <g id="Groupe_1922" data-name="Groupe 1922" transform="translate(969.439 664.157)">
      <g id="Groupe_1917" data-name="Groupe 1917" transform="translate(9.313 4.108)">
        <path id="Tracé_17777" data-name="Tracé 17777" class="cls-2" d="M1150.745,822.807c0,1.671-1.382,5.6-3.04,5.6s-3.015-3.949-3.015-5.6a3.028,3.028,0,1,1,6.055,0Z" transform="translate(-1144.125 -819.215)"/>
        <path id="Tracé_2018" data-name="Tracé 2018" class="cls-3" d="M1146.268,827.534c-2.152,0-3.579-4.385-3.579-6.163a3.592,3.592,0,1,1,7.184,0C1149.873,823.148,1148.436,827.534,1146.268,827.534Zm.013-8.626a2.467,2.467,0,0,0-2.464,2.464c0,1.664,1.348,5.034,2.451,5.034.818,0,2.476-2.769,2.476-5.034A2.466,2.466,0,0,0,1146.281,818.907Z" transform="translate(-1142.689 -817.779)"/>
      </g>
      <g id="Groupe_1918" data-name="Groupe 1918" transform="translate(4.589 11.457)">
        <path id="Tracé_17778" data-name="Tracé 17778" class="cls-2" d="M1129.5,846.758c1.447-.837,5.534-1.638,6.37-.186s-1.882,4.591-3.355,5.432a3.026,3.026,0,0,1-3.015-5.247Z" transform="translate(-1127.415 -845.205)"/>
        <path id="Tracé_2019" data-name="Tracé 2019" class="cls-3" d="M1129.577,851.536a3.6,3.6,0,0,1-.942-.126,3.59,3.59,0,0,1-.852-6.578,9.5,9.5,0,0,1,5.789-.909,2.1,2.1,0,0,1,1.351.932,2.119,2.119,0,0,1,.126,1.653,9.48,9.48,0,0,1-3.69,4.55A3.566,3.566,0,0,1,1129.577,851.536Zm2.671-6.638a9.347,9.347,0,0,0-3.9.912h0a2.461,2.461,0,1,0,2.452,4.268,8.376,8.376,0,0,0,3.161-3.867,1.12,1.12,0,0,0-.014-.8,1.1,1.1,0,0,0-.666-.4A4.06,4.06,0,0,0,1132.248,844.9Z" transform="translate(-1125.982 -843.768)"/>
      </g>
      <g id="Groupe_1919" data-name="Groupe 1919" transform="translate(12.004 11.47)">
        <path id="Tracé_17779" data-name="Tracé 17779" class="cls-2" d="M1157.675,852.025c-1.447-.861-4.186-3.984-3.35-5.431s4.922-.629,6.378.185a3.025,3.025,0,0,1-3.015,5.245Z" transform="translate(-1153.612 -845.24)"/>
        <path id="Tracé_2020" data-name="Tracé 2020" class="cls-3" d="M1157.755,851.557a3.555,3.555,0,0,1-1.627-.393h-.013l-.146-.08c-1.575-.937-4.624-4.338-3.55-6.2s5.543-.92,7.142-.025a3.587,3.587,0,0,1-1.805,6.695Zm-1.337-1.521h0l.13.074a2.461,2.461,0,0,0,2.452-4.267c-1.489-.833-5.054-1.345-5.606-.391C1152.859,846.379,1154.947,849.078,1156.418,850.036Z" transform="translate(-1152.194 -843.815)"/>
      </g>
      <g id="Groupe_1920" data-name="Groupe 1920" transform="translate(0 0)">
        <path id="Tracé_2021" data-name="Tracé 2021" class="cls-3" d="M1127.5,810.04h-.019a10.962,10.962,0,0,0,.018,21.924h.018a10.962,10.962,0,0,0-.018-21.924Zm.016,20.793h-.016a9.831,9.831,0,0,1-.016-19.663h.016a9.831,9.831,0,0,1,.016,19.663Z" transform="translate(-1114.627 -808.128)"/>
        <path id="Tracé_2022" data-name="Tracé 2022" class="cls-3" d="M1131.958,803.261h-18.638a3.564,3.564,0,0,0-3.559,3.56v18.634a3.6,3.6,0,0,0,3.56,3.585h18.638a3.594,3.594,0,0,0,3.56-3.585V806.816A3.6,3.6,0,0,0,1131.958,803.261Zm2.429,22.193a2.46,2.46,0,0,1-2.433,2.455h-18.629a2.462,2.462,0,0,1-2.434-2.455V806.82a2.432,2.432,0,0,1,2.429-2.428h18.632a2.464,2.464,0,0,1,2.435,2.429Z" transform="translate(-1109.76 -803.261)"/>
        <path id="Tracé_2023" data-name="Tracé 2023" class="cls-3" d="M1121.372,813.37a.788.788,0,1,0-.788-.788A.788.788,0,0,0,1121.372,813.37Z" transform="translate(-1117.531 -809.387)"/>
        <path id="Tracé_2024" data-name="Tracé 2024" class="cls-3" d="M1185.276,813.371a.788.788,0,1,0-.788-.788A.788.788,0,0,0,1185.276,813.371Z" transform="translate(-1163.36 -809.388)"/>
        <path id="Tracé_2025" data-name="Tracé 2025" class="cls-3" d="M1121.372,880.141a.788.788,0,1,0,.551.225A.788.788,0,0,0,1121.372,880.141Z" transform="translate(-1117.531 -858.406)"/>
        <circle id="Ellipse_385" data-name="Ellipse 385" class="cls-3" cx="0.788" cy="0.788" r="0.788" transform="translate(21.128 21.735)"/>
      </g>
      <g id="Groupe_1921" data-name="Groupe 1921" transform="translate(9.935 10.261)">
        <path id="Tracé_17785" data-name="Tracé 17785" class="cls-2" d="M1151.653,843.926a2.378,2.378,0,1,1-2.379-2.377h.015A2.378,2.378,0,0,1,1151.653,843.926Z" transform="translate(-1146.333 -840.985)"/>
        <path id="Tracé_2026" data-name="Tracé 2026" class="cls-3" d="M1147.839,845.434a2.942,2.942,0,1,1,2.942-2.943h0a2.942,2.942,0,0,1-2.941,2.943Zm.011-4.756a1.814,1.814,0,1,0-.011,3.628h0a1.814,1.814,0,0,0,1.813-1.814h0A1.818,1.818,0,0,0,1147.849,840.677Z" transform="translate(-1144.896 -839.549)"/>
      </g>
    </g>
  </g>
</svg>
