<svg id="Poele_bois" xmlns="http://www.w3.org/2000/svg" width="26" height="26" viewBox="0 0 26 26">
  <defs>
    <style>
      .cls-1 {
        fill: none;
      }

      .cls-2 {
        fill: #f57421;
      }

      .cls-3 {
        fill: #003250;
      }
    </style>
  </defs>
  <g id="Groupe_7972" data-name="Groupe 7972">
    <g id="Groupe_7971" data-name="Groupe 7971">
      <rect id="Rectangle_2586" data-name="Rectangle 2586" class="cls-1" width="26" height="26"/>
    </g>
  </g>
  <g id="Groupe_7973" data-name="Groupe 7973" transform="translate(9.316 8.751)">
    <path id="Tracé_25793" data-name="Tracé 25793" class="cls-2" d="M40.88,37.3a3.208,3.208,0,0,0-.649-1.92c-.085.988-.423,1.5-.847,1.412-.056-2.936-1.242-3.952-2.089-4.489a7.417,7.417,0,0,1-1.553,4.573c-.678-.311-.565-1.524-.565-1.524a3.2,3.2,0,0,0,2.512,5.166C39.638,40.487,40.88,39.668,40.88,37.3Z" transform="translate(-34.077 -31.933)"/>
    <path id="Tracé_25794" data-name="Tracé 25794" class="cls-3" d="M36.613,39.977A3.6,3.6,0,0,1,33,36.364a3.557,3.557,0,0,1,.762-2.23l.762.282a2.2,2.2,0,0,0,.113.819,7.038,7.038,0,0,0,1.157-3.868L36.444,31a4.8,4.8,0,0,1,2.23,3.9q.042-.212.085-.508l.762-.226a3.543,3.543,0,0,1,.734,2.174Q40.213,39.977,36.613,39.977ZM33.9,35.743a4.228,4.228,0,0,0-.056.621,2.771,2.771,0,0,0,2.767,2.767c1.92,0,2.767-.847,2.767-2.767a2.844,2.844,0,0,0-.085-.706,1.455,1.455,0,0,1-.339.452.91.91,0,0,1-.706.2l-.367-.423a4.891,4.891,0,0,0-1.27-3.67A8.133,8.133,0,0,1,35,36.223l-.508.113A1.7,1.7,0,0,1,33.9,35.743Z" transform="translate(-33 -31)"/>
  </g>
  <path id="Tracé_25795" data-name="Tracé 25795" class="cls-3" d="M28.2,33.315H12.558A2.265,2.265,0,0,1,10.3,31.057v-15.5A2.265,2.265,0,0,1,12.558,13.3H28.226a2.265,2.265,0,0,1,2.258,2.258V26.907H29.355V15.558a1.133,1.133,0,0,0-1.129-1.129H12.558a1.133,1.133,0,0,0-1.129,1.129v15.5a1.133,1.133,0,0,0,1.129,1.129H28.226a1.133,1.133,0,0,0,1.129-1.129V29.476h1.129v1.581A2.271,2.271,0,0,1,28.2,33.315Z" transform="translate(-7.392 -9.545)"/>
  <path id="Tracé_25796" data-name="Tracé 25796" class="cls-3" d="M33.234,37.772H22.45a1.759,1.759,0,0,1-1.75-1.75V25.35a1.759,1.759,0,0,1,1.75-1.75H33.262a1.759,1.759,0,0,1,1.75,1.75v10.7A1.778,1.778,0,0,1,33.234,37.772ZM22.45,24.757a.627.627,0,0,0-.621.621v10.7a.627.627,0,0,0,.621.621H33.262a.627.627,0,0,0,.621-.621V25.35a.627.627,0,0,0-.621-.621H22.45Z" transform="translate(-14.856 -16.938)"/>
  <rect id="Rectangle_2587" data-name="Rectangle 2587" class="cls-3" width="1.129" height="9.005" transform="matrix(0.164, -0.987, 0.987, 0.164, 8.34, 17.38)"/>
  <rect id="Rectangle_2588" data-name="Rectangle 2588" class="cls-3" width="9.005" height="1.129" transform="matrix(0.987, -0.164, 0.164, 0.987, 8.353, 17.74)"/>
  <rect id="Rectangle_2589" data-name="Rectangle 2589" class="cls-3" width="1.129" height="4.122" transform="translate(9.655)"/>
  <rect id="Rectangle_2590" data-name="Rectangle 2590" class="cls-3" width="1.129" height="4.122" transform="translate(15.442)"/>
  <path id="Tracé_25797" data-name="Tracé 25797" class="cls-3" d="M22.949,83.631H20.465l-.565-.565v-2.2l.565-.565h2.484l.565.565v2.2ZM21.029,82.5h1.355V81.429H21.029Z" transform="translate(-14.282 -57.631)"/>
  <path id="Tracé_25798" data-name="Tracé 25798" class="cls-3" d="M63.249,83.631H60.765l-.565-.565v-2.2l.565-.565h2.484l.565.565v2.2ZM61.329,82.5h1.355V81.429H61.329Z" transform="translate(-43.205 -57.631)"/>
</svg>
