<svg xmlns="http://www.w3.org/2000/svg" width="36" height="36" viewBox="0 0 36 36">
  <g id="Groupe_12575" data-name="Groupe 12575" transform="translate(-953.012 -1367.015)">
    <circle id="Ellipse_415" data-name="Ellipse 415" cx="18" cy="18" r="18" transform="translate(953.012 1367.015)" fill="#fff"/>
    <g id="Groupe_12573" data-name="Groupe 12573" transform="translate(888 1343.06)">
      <rect id="Rectangle_5898" data-name="Rectangle 5898" width="10" height="6" transform="translate(80 43.94)" fill="#fff"/>
      <g id="Groupe_12561" data-name="Groupe 12561" transform="translate(72.241 30.354)">
        <circle id="Ellipse_819" data-name="Ellipse 819" cx="2.542" cy="2.542" r="2.542" transform="translate(13.458 3.156)" fill="#fafab5"/>
        <path id="Tracé_30432" data-name="Tracé 30432" d="M678.047,381.355h8.944l3.093,7.181-8.759-.09Z" transform="translate(-672.946 -374.798)" fill="#00b4ff"/>
        <g id="Groupe_12542" data-name="Groupe 12542">
          <g id="Groupe_11124" data-name="Groupe 11124" transform="translate(10.318 3.671)">
            <g id="Ligne_73" data-name="Ligne 73" transform="translate(9.22 2.788)">
              <path id="Tracé_30433" data-name="Tracé 30433" d="M697.6,382.438a.393.393,0,0,1-.117-.018l-1.3-.394a.4.4,0,1,1,.234-.774l1.3.394a.4.4,0,0,1-.117.792Z" transform="translate(-695.889 -381.234)" fill="#003250"/>
            </g>
            <g id="Ligne_74" data-name="Ligne 74">
              <path id="Tracé_30434" data-name="Tracé 30434" d="M686.2,378.992a.393.393,0,0,1-.117-.018l-1.3-.394a.4.4,0,0,1,.234-.774l1.3.394a.4.4,0,0,1-.117.792Z" transform="translate(-684.494 -377.789)" fill="#003250"/>
            </g>
          </g>
          <g id="Tracé_30429" data-name="Tracé 30429" transform="translate(13.051 2.697)">
            <path id="Tracé_30435" data-name="Tracé 30435" d="M691.506,382.438l-.191-.786a2.159,2.159,0,1,0-2.644-2.434l-.8-.125a2.968,2.968,0,1,1,3.634,3.345Z" transform="translate(-687.872 -376.585)" fill="#003250"/>
          </g>
          <g id="Ligne_75" data-name="Ligne 75" transform="translate(0 19.046)">
            <path id="Tracé_30436" data-name="Tracé 30436" d="M690.343,397.6h-18.2a.4.4,0,1,1,0-.809h18.2a.4.4,0,1,1,0,.809Z" transform="translate(-671.743 -396.789)" fill="#003250"/>
          </g>
          <g id="Tracé_30430" data-name="Tracé 30430" transform="translate(1.158 6.324)">
            <path id="Tracé_30437" data-name="Tracé 30437" d="M679.99,394.584a.4.4,0,0,1-.4-.4v-5.7l-2.83-6.047-2.772,6.046v5.7a.4.4,0,1,1-.809,0v-5.788a.4.4,0,0,1,.037-.168l3.172-6.92a.442.442,0,0,1,.368-.236.4.4,0,0,1,.366.233l3.24,6.92a.409.409,0,0,1,.038.172v5.788A.4.4,0,0,1,679.99,394.584Z" transform="translate(-673.174 -381.067)" fill="#003250"/>
          </g>
          <g id="Tracé_30431" data-name="Tracé 30431" transform="translate(4.331 6.324)">
            <path id="Tracé_30438" data-name="Tracé 30438" d="M690.307,394.584a.4.4,0,0,1-.4-.4v-5.7l-3.093-6.605H677.5a.4.4,0,0,1,0-.809h9.568a.407.407,0,0,1,.367.233l3.24,6.92a.408.408,0,0,1,.038.172v5.788A.4.4,0,0,1,690.307,394.584Z" transform="translate(-677.095 -381.067)" fill="#003250"/>
          </g>
          <g id="Ligne_76" data-name="Ligne 76" transform="translate(7.57 13.244)">
            <path id="Tracé_30439" data-name="Tracé 30439" d="M691.044,390.428H681.5a.4.4,0,0,1,0-.809h9.54a.4.4,0,1,1,0,.809Z" transform="translate(-681.099 -389.619)" fill="#003250"/>
          </g>
          <g id="Ligne_77" data-name="Ligne 77" transform="translate(6.599 10.916)">
            <path id="Tracé_30440" data-name="Tracé 30440" d="M689.741,387.551H680.3a.4.4,0,0,1,0-.809h9.437a.4.4,0,0,1,0,.809Z" transform="translate(-679.899 -386.742)" fill="#003250"/>
          </g>
          <g id="Ligne_78" data-name="Ligne 78" transform="translate(5.408 8.589)">
            <path id="Tracé_30441" data-name="Tracé 30441" d="M688.29,384.675h-9.46a.4.4,0,0,1,0-.809h9.46a.4.4,0,1,1,0,.809Z" transform="translate(-678.426 -383.866)" fill="#003250"/>
          </g>
          <g id="Ligne_79" data-name="Ligne 79" transform="translate(7.605 6.373)">
            <path id="Tracé_30442" data-name="Tracé 30442" d="M684.8,388.794a.4.4,0,0,1-.365-.231l-3.258-6.857a.4.4,0,1,1,.731-.346l3.257,6.856a.4.4,0,0,1-.365.579Z" transform="translate(-681.141 -381.128)" fill="#003250"/>
          </g>
          <g id="Ligne_80" data-name="Ligne 80" transform="translate(10.773 6.372)">
            <path id="Tracé_30443" data-name="Tracé 30443" d="M688.719,388.793a.4.4,0,0,1-.365-.231L685.1,381.7a.4.4,0,1,1,.731-.346l3.258,6.857a.4.4,0,0,1-.365.579Z" transform="translate(-685.056 -381.126)" fill="#003250"/>
          </g>
          <g id="Groupe_11125" data-name="Groupe 11125" transform="translate(12.984 0.416)">
            <g id="Ligne_81" data-name="Ligne 81" transform="translate(4.548 8.492)">
              <path id="Tracé_30444" data-name="Tracé 30444" d="M694.458,386.269a.4.4,0,0,1-.356-.214l-.643-1.2a.4.4,0,0,1,.713-.383l.643,1.2a.4.4,0,0,1-.166.548A.4.4,0,0,1,694.458,386.269Z" transform="translate(-693.41 -384.26)" fill="#003250"/>
            </g>
            <g id="Ligne_82" data-name="Ligne 82">
              <path id="Tracé_30445" data-name="Tracé 30445" d="M688.836,375.776a.4.4,0,0,1-.356-.214l-.642-1.2a.4.4,0,1,1,.712-.382l.642,1.2a.4.4,0,0,1-.356.6Z" transform="translate(-687.789 -373.766)" fill="#003250"/>
            </g>
          </g>
          <g id="Groupe_11126" data-name="Groupe 11126" transform="translate(16.777)">
            <g id="Ligne_83" data-name="Ligne 83">
              <path id="Tracé_30446" data-name="Tracé 30446" d="M692.881,375.364a.421.421,0,0,1-.117-.017.4.4,0,0,1-.27-.5l.394-1.3a.4.4,0,0,1,.774.234l-.394,1.3A.4.4,0,0,1,692.881,375.364Z" transform="translate(-692.476 -373.251)" fill="#003250"/>
            </g>
          </g>
          <g id="Groupe_11127" data-name="Groupe 11127" transform="translate(19.225 2.667)">
            <g id="Ligne_84" data-name="Ligne 84">
              <path id="Tracé_30447" data-name="Tracé 30447" d="M695.906,378a.4.4,0,0,1-.191-.761l1.2-.643a.4.4,0,0,1,.383.713l-1.2.643A.4.4,0,0,1,695.906,378Z" transform="translate(-695.502 -376.548)" fill="#003250"/>
            </g>
          </g>
        </g>
      </g>
    </g>
  </g>
</svg>
