<svg xmlns="http://www.w3.org/2000/svg" width="50" height="50" viewBox="0 0 50 50">
    <defs>
        <style>
            .cls-1{fill:#b6cbff}.cls-4{fill:#003250}
        </style>
    </defs>
    <g id="travaux-purple" transform="translate(-1063 -2072)">
        <rect id="Rectangle_5189" width="36" height="36" class="cls-1" rx="18" transform="translate(1077 2086)"/>
        <g id="icon_outils_cta" transform="translate(1063 2072)">
            <g id="Groupe_7865">
                <g id="Groupe_7864">
                    <path id="Rectangle_2538" fill="none" d="M0 0H40V40H0z"/>
                </g>
            </g>
            <path id="Tracé_28837" fill="#fff" d="M35.95 4.811l-6.521 3.744-.578 2.5s-4.751 5.841-5.073 5.7-3.712-3.336-3.712-3.336l-4.412 4.108 3.618 3.638-3.072 3.176-2.1-.468-2.546 1.034-5.784 5.956-.69 3.464 2.6 2.753 3.869.678 6.994-7.3.725-3.441 2.832-2.676L34.118 36.2l4.76-4.615-12.066-11.941 5.9-5.733 2.811-.491 3.717-6.374z"/>
            <path id="Rectangle_2539" d="M0 0H1.739V18.392H0z" class="cls-4" transform="rotate(-45 39.958 -13.185)"/>
            <path id="Rectangle_2540" d="M0 0H1.739V18.392H0z" class="cls-4" transform="rotate(-45 36.66 -21.042)"/>
            <path id="Tracé_28836" d="M23.77 3.769l-8.3-1.923-3.612 1.013L7.086 6.51l1.376 2.347-.967 2.809-2.562.565-1.851-.565-2.525 2.9 6.53 6.112 2.261-2.511-.886-2.128 1.812-2.328 2.619.856 2.574 3 4.709-4.726-2.866-2.755V7.6l1.351-2.085z" class="cls-1"/>
            <path id="Tracé_25742" d="M18.344 10.048a2.418 2.418 0 0 1 .913-1.826 3.172 3.172 0 0 1 1.261-.652l4.826-1.348-.043-1.7-6.653-1.474a11.111 11.111 0 0 0-10.3 2.913L6.517 7.787V9l.435.435a2.112 2.112 0 0 1 .648 1.482 1.87 1.87 0 0 1-.522 1.348l-.13.13a2.027 2.027 0 0 1-2.609.043.862.862 0 0 0-1-.087l-.13.174-.043-.087L.3 15.309v1.217l6.391 6.391h1.218l2.261-2.261v-1.217l-.043-.043A1.713 1.713 0 0 1 10 17a1.714 1.714 0 0 1 2.391.13l6.909 6.918 1.217-1.217-3.652-3.652 3.391-3.391 3.13 3.13 1.022-1.418-5.152-5.189a3.017 3.017 0 0 1-.912-2.263zM15.6 17.917l-2.044-2.044a3.428 3.428 0 0 0-4.826-.13 3.345 3.345 0 0 0-.348 4.217L7.3 21.091l-5.174-5.13 1.783-1.783a3.673 3.673 0 0 0 4.3-.565l.13-.13a3.441 3.441 0 0 0 1-2.652A4.142 4.142 0 0 0 8.387 8.4L9.6 7.178a9.415 9.415 0 0 1 8.7-2.435l3.217.739-1.478.435a4.778 4.778 0 0 0-1.87.957 4.244 4.244 0 0 0-1.522 3.087 4.783 4.783 0 0 0 1.435 3.609l.957.957z" class="cls-4" transform="translate(-.17 -1.569)"/>
            <path id="Tracé_25743" d="M45.563 11.787l-3-2.957-1.087-.13-6.435 4-.391.609-.261 2.091-12.783 12.778a5.107 5.107 0 0 0-4.7 1.217l-5.217 4.739A4.954 4.954 0 0 0 10 37.874a5.281 5.281 0 0 0 1.519 3.826l.478.478a5.161 5.161 0 0 0 3.7 1.522h.13a5.278 5.278 0 0 0 3.735-1.7l4.738-5.213a5.338 5.338 0 0 0 1.348-3.913l13.045-13.13 2.261-.217.652-.391 4.044-6.261zM22.954 35.57l-4.7 5.217a3.4 3.4 0 0 1-2.478 1.13 3.541 3.541 0 0 1-2.565-1l-.478-.478a3.311 3.311 0 0 1-1-2.565 3.572 3.572 0 0 1 1.13-2.478l5.217-4.739a3.4 3.4 0 0 1 2.348-.913 3.678 3.678 0 0 1 2.478 1 3.552 3.552 0 0 1 .048 4.826zm17.435-17.739l-2.174.217-.522.261-12.652 12.609a5.84 5.84 0 0 0-.957-1.348 5.661 5.661 0 0 0-.783-.652L35.823 16.4l.261-.478.261-1.957 5.522-3.391 1.957 1.957z" class="cls-4" transform="translate(-5.649 -4.917)"/>
            <path id="Rectangle_5162" d="M0 0H1.739V4.392H0z" class="cls-4" transform="rotate(45 -17.37 61.955)"/>
        </g>
    </g>
</svg>
